<?xml version="1.0" encoding="iso-8859-1"?>
<!-- Generator: Adobe Illustrator 19.0.0, SVG Export Plug-In . SVG Version: 6.00 Build 0)  -->
<svg version="1.1" id="Capa_1" xmlns="http://www.w3.org/2000/svg" xmlns:xlink="http://www.w3.org/1999/xlink" x="0px" y="0px"
	 viewBox="0 0 712 712" style="enable-background:new 0 0 712 712;" xml:space="preserve">
<linearGradient id="SVGID_1_" gradientUnits="userSpaceOnUse" x1="2.862244e-004" y1="257.9973" x2="512.0036" y2="257.9973" gradientTransform="matrix(1 0 0 -1 -2.862228e-004 513.996)">
	<stop  offset="0" style="stop-color:#00F2FE"/>
	<stop  offset="0.021" style="stop-color:#03EFFE"/>
	<stop  offset="0.293" style="stop-color:#24D2FE"/>
	<stop  offset="0.554" style="stop-color:#3CBDFE"/>
	<stop  offset="0.796" style="stop-color:#4AB0FE"/>
	<stop  offset="1" style="stop-color:#4FACFE"/>
</linearGradient>
<path style="fill:url(#SVGID_1_);" d="M373.535,511.999c-0.375,0-0.747-0.001-1.122-0.002
	c-35.305-0.177-73.771-9.137-114.332-26.633c-10.143-4.375-14.818-16.143-10.443-26.286c4.374-10.143,16.145-14.819,26.285-10.443
	c35.092,15.136,69.219,23.215,98.689,23.362c0.305,0.002,0.609,0.002,0.913,0.002c36.87,0,67.652-11.204,89.1-32.433l0.142-0.157
	c13.046-14.535,12.252-36.545-1.811-50.105c-53.696-51.779-79.047-48.032-102.511-25.151l-37.353,37.075
	c-5.857,5.814-14.687,7.434-22.225,4.075c-2.114-0.941-52.429-23.709-109.126-80.408l-2.633-2.629
	c-56.705-56.706-79.474-107.018-80.415-109.132c-3.357-7.54-1.738-16.368,4.076-22.226l37.074-37.352
	c22.88-23.463,26.629-48.814-25.15-102.511c-13.562-14.063-35.571-14.857-50.108-1.808l-0.153,0.138
	c-21.403,21.626-32.616,52.739-32.431,90.014c0.359,71.919,41.169,155.449,109.164,223.445
	c12.964,12.961,27.769,25.845,44.004,38.294c8.766,6.721,10.424,19.275,3.702,28.041c-6.721,8.766-19.275,10.422-28.04,3.702
	c-17.622-13.512-33.755-27.56-47.95-41.755C45.603,315.839,0.414,221.811,0.003,139.589C-0.238,91.188,15.152,50.087,44.511,20.728
	c0.254-0.253,0.514-0.5,0.78-0.739l0.574-0.516C60.613,6.235,79.629-0.663,99.446,0.052c19.805,0.714,38.286,8.964,52.041,23.229
	c26.934,27.931,42.481,51.333,48.93,73.646c8.885,30.749,0.805,59.227-24.016,84.64c-0.038,0.039-0.076,0.077-0.114,0.115
	l-26.84,27.041c9.517,16.881,30.432,49.747,65.94,85.254l2.632,2.63c35.503,35.502,68.363,56.418,85.262,65.944l27.04-26.838
	c0.038-0.038,0.076-0.076,0.114-0.113c25.416-24.822,53.896-32.902,84.641-24.016c22.314,6.448,45.716,21.996,73.647,48.929
	c14.265,13.755,22.515,32.237,23.229,52.042c0.715,19.804-6.182,38.832-19.419,53.579l-0.519,0.577
	c-0.239,0.267-0.485,0.526-0.738,0.78C462.142,496.62,421.448,511.999,373.535,511.999z"/>
<g>
</g>
<g>
</g>
<g>
</g>
<g>
</g>
<g>
</g>
<g>
</g>
<g>
</g>
<g>
</g>
<g>
</g>
<g>
</g>
<g>
</g>
<g>
</g>
<g>
</g>
<g>
</g>
<g>
</g>
</svg>
