<?xml version="1.0" encoding="iso-8859-1"?>
<!-- Generator: Adobe Illustrator 19.0.0, SVG Export Plug-In . SVG Version: 6.00 Build 0)  -->
<svg version="1.1" id="Capa_1" xmlns="http://www.w3.org/2000/svg" xmlns:xlink="http://www.w3.org/1999/xlink" x="0px" y="0px"
	 viewBox="0 0 1312 1312" style="enable-background:new 0 0 1312 1312;" xml:space="preserve">
<linearGradient id="SVGID_1_" gradientUnits="userSpaceOnUse" x1="41" y1="258" x2="471" y2="258" gradientTransform="matrix(1 0 0 -1 0 514)">
	<stop  offset="0" style="stop-color:#00F2FE"/>
	<stop  offset="0.021" style="stop-color:#03EFFE"/>
	<stop  offset="0.293" style="stop-color:#24D2FE"/>
	<stop  offset="0.554" style="stop-color:#3CBDFE"/>
	<stop  offset="0.796" style="stop-color:#4AB0FE"/>
	<stop  offset="1" style="stop-color:#4FACFE"/>
</linearGradient>
<path style="fill:url(#SVGID_1_);" d="M256,267c-51.832,0-94-42.168-94-94s42.168-94,94-94s94,42.168,94,94
	c0,5.099-0.413,10.219-1.229,15.219c-1.777,10.901-12.044,18.297-22.958,16.521c-10.901-1.777-18.298-12.056-16.521-22.958
	c0.469-2.878,0.707-5.832,0.707-8.781c0-29.775-24.225-54-54-54s-54,24.225-54,54s24.225,54,54,54c2.45,0,4.915-0.165,7.325-0.49
	c10.945-1.474,21.017,6.199,22.495,17.146c1.478,10.946-6.199,21.018-17.146,22.495C264.498,266.714,260.233,267,256,267z
	 M174.361,343.917C129.48,295.748,83.071,245.94,83,172.02c0.054-46.359,18.044-89.676,50.657-122.012
	C166.182,17.76,209.631,0,256,0c46.397,0,90.002,17.737,122.779,49.944c32.977,32.404,51.167,75.742,51.221,122.032
	c-0.071,73.843-46.707,123.563-91.808,171.645c-23.082,24.607-46.949,50.054-65.286,79.064C269.241,428.484,262.859,432,256,432
	s-13.241-3.516-16.906-9.314C220.826,393.785,197.205,368.434,174.361,343.917z M123,172.023
	c0.057,58.153,37.394,98.226,80.627,144.625c17.744,19.044,35.936,38.568,52.385,60.34c16.607-21.927,35.032-41.569,53.006-60.732
	c43.424-46.295,80.927-86.276,80.982-144.275C389.916,99.226,329.804,40,256,40C181.506,40,123.085,97.991,123,172.023z
	 M438.765,396.608c-15.385-8.07-36.508-14.869-62.782-20.208c-10.83-2.197-21.382,4.794-23.582,15.617
	c-2.199,10.824,4.793,21.383,15.617,23.582c40.529,8.235,57.145,18.119,61.938,22.912c-3.531,3.538-15.338,12.42-50.025,20.77
	C345.858,467.483,301.847,472,256,472s-89.858-4.517-123.93-12.719c-34.688-8.35-46.494-17.231-50.025-20.77
	c4.793-4.793,21.408-14.677,61.938-22.912c10.824-2.199,17.816-12.758,15.617-23.582s-12.759-17.813-23.582-15.617
	c-26.274,5.339-47.397,12.138-62.782,20.208C51.846,407.828,41,421.938,41,438.544c0,24.814,24.166,44.021,71.826,57.087
	C151.331,506.187,202.178,512,256,512s104.669-5.813,143.174-16.369C446.834,482.565,471,463.358,471,438.544
	C471,421.938,460.154,407.828,438.765,396.608z"/>
<g>
</g>
<g>
</g>
<g>
</g>
<g>
</g>
<g>
</g>
<g>
</g>
<g>
</g>
<g>
</g>
<g>
</g>
<g>
</g>
<g>
</g>
<g>
</g>
<g>
</g>
<g>
</g>
<g>
</g>
</svg>
